<?xml version="1.0" encoding="UTF-8"?>
<svg width="450px" height="400px" viewBox="0 0 450 400" version="1.1" xmlns="http://www.w3.org/2000/svg" xmlns:xlink="http://www.w3.org/1999/xlink">
    <!-- Generator: Sketch 59 (86127) - https://sketch.com -->
    <title>rapido</title>
    <desc>Created with Sketch.</desc>
    <g id="rapido" stroke="none" stroke-width="1" fill="none" fill-rule="evenodd">
        <path d="M67.3337438,175.168989 C76.2181017,175.168989 80.660214,179.14351 80.660214,187.092672 C80.660214,190.365857 80.1666459,193.483129 79.1794951,196.444581 C77.3610593,202.055755 74.5035601,205.796481 70.6069119,207.666872 L75.7504618,223.876847 L59.4625539,223.876847 L55.8776555,209.381389 L52.68242,209.381389 L50.1885776,223.876847 L35.3813885,223.876847 L43.9539717,175.168989 L67.3337438,175.168989 Z M58.2156327,197.379772 C59.9821132,197.379772 61.3199423,197.184943 62.2291603,196.795278 C63.1383782,196.405613 63.7618325,195.288591 64.099542,193.444177 L64.3098798,192.260893 C64.5073632,191.107544 64.6061038,190.371954 64.6061038,190.05411 C64.6061038,189.015004 64.2034562,188.352584 63.3981489,188.06683 C62.5928416,187.781075 61.2809806,187.6382 59.4625539,187.6382 L56.5011161,187.6382 L54.7865994,197.379772 L58.2156327,197.379772 Z M33.0434113,223.64305 L0,220.136084 L33.6668719,220.136084 L33.0434113,223.64305 Z M35.6931188,208.602063 L2.64970751,205.095097 L36.3165794,205.095097 L35.6931188,208.602063 Z M38.2648938,193.639009 L5.29941502,190.132043 L38.8883544,190.132043 L38.2648938,193.639009 Z M39.5897475,186.157482 L6.62426878,182.650516 L40.2132081,182.650516 L39.5897475,186.157482 Z M34.3682651,216.08359 L1.32485376,212.576624 L34.9917257,212.576624 L34.3682651,216.08359 Z M40.9146013,178.675954 L7.94912254,175.168989 L41.5380619,175.168989 L40.9146013,178.675954 Z M36.94004,201.120536 L3.97456127,197.61357 L37.5635006,197.61357 L36.94004,201.120536 Z M127.142665,223.876847 L111.55615,223.876847 L132.052417,175.168989 L154.964594,175.168989 L158.393627,223.876847 L142.729179,223.876847 L142.417449,216.161522 L130.182035,216.161522 L127.142665,223.876847 Z M141.248461,203.770243 L141.248461,190.132043 L140.469135,190.132043 L135.013855,203.770243 L141.248461,203.770243 Z M109.062308,223.565117 L77.1099523,220.136084 L110.543026,220.136084 L109.062308,223.565117 Z M112.257543,216.005657 L80.3051878,212.576624 L113.738262,212.576624 L112.257543,216.005657 Z M115.452779,208.52413 L83.5004233,205.095097 L116.855565,205.095097 L115.452779,208.52413 Z M118.570082,201.042603 L86.6956589,197.61357 L120.0508,197.61357 L118.570082,201.042603 Z M121.765317,193.561076 L89.8908944,190.132043 L123.168103,190.132043 L121.765317,193.561076 Z M128.077856,178.520089 L96.2813655,175.168989 L129.480642,175.168989 L128.077856,178.520089 Z M124.88262,186.001616 L93.0861299,182.650516 L126.285406,182.650516 L124.88262,186.001616 Z M96.2813655,175.168989 L129.480642,175.168989 L128.077856,178.520089 L96.2813655,175.168989 Z M220.462592,212.109029 L210.798953,212.109029 L208.772706,223.876847 L193.965517,223.876847 L202.5381,175.168989 L225.917873,175.168989 C234.750275,175.168989 239.16641,179.273396 239.16641,187.482335 C239.16641,191.378983 238.620888,194.898903 237.529826,198.042199 C236.438765,201.185495 235.230822,203.679313 233.905961,205.523726 C232.581101,207.36814 230.762692,208.926776 228.450681,210.199681 C226.13867,211.472586 223.476,212.109029 220.462592,212.109029 Z M216.410099,199.639817 C218.176579,199.639817 219.514408,199.444987 220.423626,199.055323 C221.332844,198.665658 221.917332,197.769442 222.177109,196.366649 L222.739957,193.102132 C223.040142,191.312569 223.190232,190.296568 223.190232,190.05411 C223.190232,189.066959 222.800573,188.417528 222.021244,188.105796 C221.241914,187.794064 220.072937,187.6382 218.514278,187.6382 L215.085245,187.6382 L212.981065,199.639817 L216.410099,199.639817 Z M191.62754,223.64305 L158.584129,220.136084 L192.251001,220.136084 L191.62754,223.64305 Z M194.277248,208.602063 L161.233836,205.095097 L194.900708,205.095097 L194.277248,208.602063 Z M196.849022,193.639009 L163.883544,190.132043 L197.472483,190.132043 L196.849022,193.639009 Z M198.173876,186.157482 L165.208397,182.650516 L198.797337,182.650516 L198.173876,186.157482 Z M192.952394,216.08359 L159.908982,212.576624 L193.575854,212.576624 L192.952394,216.08359 Z M199.49873,178.675954 L166.533251,175.168989 L200.122191,175.168989 L199.49873,178.675954 Z M195.524169,201.120536 L162.55869,197.61357 L196.147629,197.61357 L195.524169,201.120536 Z M269.049223,223.876847 L277.621806,175.168989 L292.428995,175.168989 L283.856412,223.876847 L269.049223,223.876847 Z M266.711245,223.64305 L233.667834,220.136084 L267.334706,220.136084 L266.711245,223.64305 Z M269.360953,208.602063 L236.317542,205.095097 L269.984413,205.095097 L269.360953,208.602063 Z M270.685807,201.120536 L237.642395,197.61357 L271.309267,197.61357 L270.685807,201.120536 Z M272.01066,193.639009 L238.967249,190.132043 L272.634121,190.132043 L272.01066,193.639009 Z M273.335514,186.157482 L240.292103,182.650516 L273.881042,182.650516 L273.335514,186.157482 Z M268.036099,216.08359 L234.992688,212.576624 L268.65956,212.576624 L268.036099,216.08359 Z M274.582435,178.675954 L241.616957,175.168989 L275.205896,175.168989 L274.582435,178.675954 Z M352.783444,175.168989 C359.485679,175.168989 364.252507,176.350954 367.084071,178.714921 C369.915635,181.078887 371.331396,184.910534 371.331396,190.209975 C371.331396,192.911651 371.019669,196.028923 370.396205,199.561884 C368.837546,208.290376 366.174876,214.52492 362.408117,218.265702 C358.641357,222.006484 352.575665,223.876847 344.210861,223.876847 L323.480796,223.876847 L332.053379,175.168989 L352.783444,175.168989 Z M350.757197,187.6382 L344.600523,187.6382 L340.470097,211.407635 L346.62677,211.407635 C348.653027,211.407635 350.159709,211.160851 351.14686,210.667276 C352.13401,210.173701 352.783442,209.04369 353.095174,207.277209 L355.822814,191.768627 C355.874769,191.456895 355.900747,191.041259 355.900747,190.521706 C355.900747,189.326734 355.48511,188.547416 354.653825,188.183728 C353.82254,187.820041 352.523677,187.6382 350.757197,187.6382 Z M321.142819,223.64305 L288.099407,220.136084 L321.766279,220.136084 L321.142819,223.64305 Z M323.792526,208.602063 L290.749115,205.095097 L324.415987,205.095097 L323.792526,208.602063 Z M325.11738,201.120536 L292.073969,197.61357 L325.740841,197.61357 L325.11738,201.120536 Z M326.442234,193.639009 L293.398822,190.132043 L327.065694,190.132043 L326.442234,193.639009 Z M327.767087,186.157482 L294.723676,182.650516 L328.312615,182.650516 L327.767087,186.157482 Z M322.467672,216.08359 L289.424261,212.576624 L323.091133,212.576624 L322.467672,216.08359 Z M329.014009,178.675954 L296.04853,175.168989 L329.637469,175.168989 L329.014009,178.675954 Z M425.295374,211.719366 C427.321631,211.719366 428.828312,211.472582 429.815463,210.979006 C430.802614,210.485431 431.452046,209.35542 431.763778,207.588939 L435.348676,187.32647 L429.11407,187.32647 C427.139768,187.32647 425.659064,187.573254 424.671913,188.06683 C423.684763,188.560405 423.035331,189.690416 422.723599,191.456897 L419.138701,211.719366 L425.295374,211.719366 Z M431.685845,174 C438.284169,174 442.986054,175.285875 445.791641,177.857662 C448.597228,180.42945 450,184.390983 450,189.74238 C450,195.093777 449.155739,200.691877 447.467191,206.53685 C445.778644,212.381822 443.102986,216.927843 439.440136,220.17505 C435.777287,223.422257 430.42597,225.045836 423.386026,225.045836 C416.346082,225.045836 411.42339,223.759961 408.617803,221.188173 C405.812217,218.616386 404.409444,214.654853 404.409444,209.303456 C404.409444,206.757646 404.773126,203.39359 405.5005,199.211188 C406.227875,195.028785 407.189033,191.417945 408.384006,188.37856 C409.578978,185.339174 411.189568,182.702482 413.215825,180.468404 C417.112473,176.156113 423.269085,174 431.685845,174 Z M403.240456,199.172221 C403.136545,199.587864 403.032636,200.159364 402.928725,200.886738 L372.301224,197.61357 L403.474253,197.61357 L403.240456,199.172221 Z M402.383197,205.095097 C402.227331,206.290069 402.1494,207.381114 402.1494,208.368265 L371.443966,205.095097 L402.383197,205.095097 Z M405.344635,190.132043 L404.409444,193.327278 L374.171606,190.132043 L405.344635,190.132043 Z M372.457089,212.576624 L402.227332,212.576624 L402.378327,213.599492 C402.52445,214.554166 402.655961,215.304261 402.77286,215.849792 L372.457089,212.576624 Z M377.834437,182.650516 L408.539871,182.650516 L408.193503,183.299956 C407.645087,184.339058 407.240996,185.161673 406.981219,185.767819 L377.834437,182.650516 Z M404.565309,220.136084 C405.240728,221.331056 406.020046,222.292215 406.903287,223.019589 L379.938616,220.136084 L404.565309,220.136084 Z M415.943465,175.168989 C414.436761,176.104184 413.267784,176.961434 412.436499,177.740764 L388.589132,175.168989 L415.943465,175.168989 Z" id="RAPIDO" fill="#61DAFB" fill-rule="nonzero"></path>
        <path d="M355.609756,275.121951 C368.871951,333.109756 363.109756,379.29878 337.408537,394.115854 C331.371951,397.591463 324.420732,399.237805 316.737805,399.237805 C291.585366,399.237805 258.658537,381.493902 225.365854,350.579268 C192.073171,381.676829 159.146341,399.603659 133.993902,399.603659 C126.310976,399.603659 119.359756,397.957317 113.414634,394.481707 C87.6219512,379.664634 81.7682927,333.384146 94.9390244,275.213415 C66.3101405,266.450407 42.6752962,254.99476 26.2278936,242.000897 L65.1894553,242.000764 C68.102687,243.411987 71.1318483,244.790187 74.2682927,246.128049 C82.2256098,249.512195 90.8231707,252.621951 99.8780488,255.457317 C101.153535,251.015893 102.531115,246.529093 104.010789,242.001156 L125.61227,242.000336 C123.418739,248.350426 121.412753,254.652571 119.634146,260.853659 C131.615854,263.780488 144.146341,266.158537 157.134146,268.079268 C152.652439,261.128049 148.262195,253.993902 143.963415,246.676829 C143.047634,245.118054 142.148458,243.559279 141.264116,242.000504 L164.93942,242.002001 C171.070562,252.252528 177.389956,262.030736 183.841463,271.280488 C197.378049,272.378049 211.189024,273.018293 225,273.018293 C238.902439,273.018293 252.713415,272.378049 266.341463,271.189024 C272.744663,262.008533 278.952649,252.242398 285.020306,242.000392 L308.529674,242.001082 C307.70914,243.470886 306.878354,244.938493 306.036585,246.402439 C301.829268,253.810976 297.347561,261.036585 292.865854,268.079268 C305.945122,266.158537 318.567073,263.689024 330.54878,260.762195 C328.744556,254.589849 326.743155,248.318915 324.544577,242.00057 L346.156433,242.000866 C347.63897,246.497456 349.021785,250.953815 350.304878,255.365854 C359.176829,252.530488 367.77439,249.512195 375.640244,246.128049 C378.79307,244.792106 381.837489,243.413667 384.764803,242.000418 L423.807495,242.000991 C407.455885,254.950366 383.996669,266.376951 355.609756,275.121951 Z M114.512195,280.70122 C112.5,289.939024 110.853659,298.993902 109.847561,307.591463 C105.640244,342.530488 111.036585,369.695122 123.47561,376.829268 C126.219512,378.384146 129.695122,379.207317 133.810976,379.29878 C152.835366,379.29878 180.823171,364.115854 210.640244,336.402439 C197.743902,322.957317 184.939024,307.591463 172.591463,290.670732 C152.012195,288.47561 132.439024,285.091463 114.512195,280.70122 Z M335.670732,280.518293 C317.743902,285 298.170732,288.384146 277.5,290.579268 C265.335366,307.5 252.530488,322.77439 239.72561,336.219512 C269.542683,363.75 297.621951,378.841463 316.554878,378.841463 C320.762195,378.841463 324.329268,378.109756 327.073171,376.463415 C339.420732,369.237805 344.72561,342.073171 340.426829,307.134146 C339.420732,298.628049 337.77439,289.756098 335.670732,280.518293 Z M250.335366,292.682927 C242.012195,293.140244 233.506098,293.323171 224.908537,293.323171 C216.402439,293.323171 207.987805,293.04878 199.756098,292.682927 C208.170732,303.384146 216.676829,313.170732 225.182927,321.95122 C233.597561,313.170732 242.103659,303.384146 250.335366,292.682927 Z M316.189024,0 L316.189,0.092 L316.78592,0.0960038808 C323.880528,0.18989278 330.400363,1.74150546 336.042139,4.90248433 L336.585366,5.21341463 C362.378049,20.0304878 368.231707,66.3109756 355.060976,124.481707 C383.91444,133.313457 407.695205,144.880256 424.157845,158.0003 L385.438569,157.999972 C382.333354,156.481987 379.094182,155.001349 375.731707,153.567073 C367.682927,150.182927 359.085366,147.073171 350.030488,144.237805 C348.726259,148.779316 347.315283,153.36827 345.79756,158.000137 L324.190475,158.000662 C326.42533,151.547075 328.467229,145.142105 330.27439,138.841463 C318.292683,135.914634 305.762195,133.536585 292.77439,131.615854 C297.256098,138.567073 301.737805,145.70122 305.945122,153.018293 C306.920844,154.679097 307.877718,156.3399 308.817883,158.000704 L285.134042,157.998905 C278.979921,147.703646 272.635814,137.88426 266.158537,128.597561 C252.621951,127.5 238.810976,126.859756 225,126.859756 C211.097561,126.859756 197.286585,127.5 183.658537,128.689024 C177.22978,137.906157 170.9978,147.713617 164.907049,158.000312 L141.201788,158.00073 C142.079822,156.431381 142.969576,154.862032 143.871951,153.292683 C148.079268,145.884146 152.560976,138.658537 157.042683,131.615854 C143.963415,133.536585 131.341463,136.006098 119.359756,138.841463 C121.201771,145.143094 123.24931,151.547487 125.502372,158.000179 L103.853087,158.000138 C102.332316,153.399745 100.91584,148.84133 99.6036585,144.329268 C90.7317073,147.164634 82.1341463,150.182927 74.2682927,153.567073 C70.8888338,154.999047 67.6339269,156.479846 64.514388,158.000004 L25.8724837,158.000301 C42.260922,144.950584 65.8953425,133.425491 94.5731707,124.573171 C81.3109756,66.5853659 87.0731707,20.3963415 112.77439,5.57926829 C118.628049,2.20898004 125.341749,0.558775113 132.748695,0.461857539 L133.445122,0.457317073 L133.445122,0.365853659 C158.597561,0.365853659 191.52439,18.1097561 224.817073,49.0243902 C258.109756,17.9268293 291.036585,0 316.189024,0 Z M133.445122,20.7621951 L133.445122,20.8536585 C129.237805,20.8536585 125.670732,21.5853659 122.926829,23.2317073 C110.579268,30.4573171 105.27439,57.6219512 109.573171,92.5609756 C110.670732,101.067073 112.22561,109.939024 114.329268,119.085366 C132.256098,114.603659 151.829268,111.219512 172.5,109.02439 C184.664634,92.1036585 197.469512,76.8292683 210.27439,63.3841463 C180.457317,35.8536585 152.378049,20.7621951 133.445122,20.7621951 Z M316.097,20.397 L315.615611,20.4008937 C296.604695,20.701253 268.878659,35.8564024 239.359756,63.2926829 C252.256098,76.7378049 265.060976,92.1036585 277.408537,109.02439 C297.987805,111.219512 317.560976,114.603659 335.487805,118.993902 C337.5,109.756098 339.146341,100.70122 340.152439,92.1036585 C344.359756,57.1646341 338.963415,30 326.52439,22.8658537 C323.807165,21.3757622 320.585937,20.5576728 316.619208,20.4920856 L316.097561,20.4878049 L316.097,20.397 Z M224.72561,77.7439024 C216.310976,86.5243902 207.804878,96.3109756 199.573171,107.012195 C207.896341,106.554878 216.402439,106.371951 225,106.371951 C233.506098,106.371951 241.920732,106.646341 250.152439,107.012195 C241.737805,96.3109756 233.231707,86.5243902 224.72561,77.7439024 Z M316.097561,0.0914634146 L316.097,20.397 L316.189024,20.3963415 L316.189,0.092 L316.097561,0.0914634146 Z" id="Combined-Shape" fill="#61DAFB" fill-rule="nonzero"></path>
    </g>
</svg>