<?xml version="1.0" encoding="UTF-8"?>
<svg width="450px" height="450px" viewBox="0 0 450 450" version="1.1" xmlns="http://www.w3.org/2000/svg" xmlns:xlink="http://www.w3.org/1999/xlink">
    <!-- Generator: Sketch 59.1 (86144) - https://sketch.com -->
    <title>rapido</title>
    <desc>Created with Sketch.</desc>
    <g id="rapido" stroke="none" stroke-width="1" fill="none" fill-rule="evenodd">
        <path d="M67.3337438,200.168989 C76.2181017,200.168989 80.660214,204.14351 80.660214,212.092672 C80.660214,215.365857 80.1666459,218.483129 79.1794951,221.444581 C77.3610593,227.055755 74.5035601,230.796481 70.6069119,232.666872 L75.7504618,248.876847 L59.4625539,248.876847 L55.8776555,234.381389 L52.68242,234.381389 L50.1885776,248.876847 L35.3813885,248.876847 L43.9539717,200.168989 L67.3337438,200.168989 Z M58.2156327,222.379772 C59.9821132,222.379772 61.3199423,222.184943 62.2291603,221.795278 C63.1383782,221.405613 63.7618325,220.288591 64.099542,218.444177 L64.3098798,217.260893 C64.5073632,216.107544 64.6061038,215.371954 64.6061038,215.05411 C64.6061038,214.015004 64.2034562,213.352584 63.3981489,213.06683 C62.5928416,212.781075 61.2809806,212.6382 59.4625539,212.6382 L56.5011161,212.6382 L54.7865994,222.379772 L58.2156327,222.379772 Z M33.0434113,248.64305 L0,245.136084 L33.6668719,245.136084 L33.0434113,248.64305 Z M35.6931188,233.602063 L2.64970751,230.095097 L36.3165794,230.095097 L35.6931188,233.602063 Z M38.2648938,218.639009 L5.29941502,215.132043 L38.8883544,215.132043 L38.2648938,218.639009 Z M39.5897475,211.157482 L6.62426878,207.650516 L40.2132081,207.650516 L39.5897475,211.157482 Z M34.3682651,241.08359 L1.32485376,237.576624 L34.9917257,237.576624 L34.3682651,241.08359 Z M40.9146013,203.675954 L7.94912254,200.168989 L41.5380619,200.168989 L40.9146013,203.675954 Z M36.94004,226.120536 L3.97456127,222.61357 L37.5635006,222.61357 L36.94004,226.120536 Z M127.142665,248.876847 L111.55615,248.876847 L132.052417,200.168989 L154.964594,200.168989 L158.393627,248.876847 L142.729179,248.876847 L142.417449,241.161522 L130.182035,241.161522 L127.142665,248.876847 Z M141.248461,228.770243 L141.248461,215.132043 L140.469135,215.132043 L135.013855,228.770243 L141.248461,228.770243 Z M109.062308,248.565117 L77.1099523,245.136084 L110.543026,245.136084 L109.062308,248.565117 Z M112.257543,241.005657 L80.3051878,237.576624 L113.738262,237.576624 L112.257543,241.005657 Z M115.452779,233.52413 L83.5004233,230.095097 L116.855565,230.095097 L115.452779,233.52413 Z M118.570082,226.042603 L86.6956589,222.61357 L120.0508,222.61357 L118.570082,226.042603 Z M121.765317,218.561076 L89.8908944,215.132043 L123.168103,215.132043 L121.765317,218.561076 Z M128.077856,203.520089 L96.2813655,200.168989 L129.480642,200.168989 L128.077856,203.520089 Z M124.88262,211.001616 L93.0861299,207.650516 L126.285406,207.650516 L124.88262,211.001616 Z M96.2813655,200.168989 L129.480642,200.168989 L128.077856,203.520089 L96.2813655,200.168989 Z M220.462592,237.109029 L210.798953,237.109029 L208.772706,248.876847 L193.965517,248.876847 L202.5381,200.168989 L225.917873,200.168989 C234.750275,200.168989 239.16641,204.273396 239.16641,212.482335 C239.16641,216.378983 238.620888,219.898903 237.529826,223.042199 C236.438765,226.185495 235.230822,228.679313 233.905961,230.523726 C232.581101,232.36814 230.762692,233.926776 228.450681,235.199681 C226.13867,236.472586 223.476,237.109029 220.462592,237.109029 Z M216.410099,224.639817 C218.176579,224.639817 219.514408,224.444987 220.423626,224.055323 C221.332844,223.665658 221.917332,222.769442 222.177109,221.366649 L222.739957,218.102132 C223.040142,216.312569 223.190232,215.296568 223.190232,215.05411 C223.190232,214.066959 222.800573,213.417528 222.021244,213.105796 C221.241914,212.794064 220.072937,212.6382 218.514278,212.6382 L215.085245,212.6382 L212.981065,224.639817 L216.410099,224.639817 Z M191.62754,248.64305 L158.584129,245.136084 L192.251001,245.136084 L191.62754,248.64305 Z M194.277248,233.602063 L161.233836,230.095097 L194.900708,230.095097 L194.277248,233.602063 Z M196.849022,218.639009 L163.883544,215.132043 L197.472483,215.132043 L196.849022,218.639009 Z M198.173876,211.157482 L165.208397,207.650516 L198.797337,207.650516 L198.173876,211.157482 Z M192.952394,241.08359 L159.908982,237.576624 L193.575854,237.576624 L192.952394,241.08359 Z M199.49873,203.675954 L166.533251,200.168989 L200.122191,200.168989 L199.49873,203.675954 Z M195.524169,226.120536 L162.55869,222.61357 L196.147629,222.61357 L195.524169,226.120536 Z M269.049223,248.876847 L277.621806,200.168989 L292.428995,200.168989 L283.856412,248.876847 L269.049223,248.876847 Z M266.711245,248.64305 L233.667834,245.136084 L267.334706,245.136084 L266.711245,248.64305 Z M269.360953,233.602063 L236.317542,230.095097 L269.984413,230.095097 L269.360953,233.602063 Z M270.685807,226.120536 L237.642395,222.61357 L271.309267,222.61357 L270.685807,226.120536 Z M272.01066,218.639009 L238.967249,215.132043 L272.634121,215.132043 L272.01066,218.639009 Z M273.335514,211.157482 L240.292103,207.650516 L273.881042,207.650516 L273.335514,211.157482 Z M268.036099,241.08359 L234.992688,237.576624 L268.65956,237.576624 L268.036099,241.08359 Z M274.582435,203.675954 L241.616957,200.168989 L275.205896,200.168989 L274.582435,203.675954 Z M352.783444,200.168989 C359.485679,200.168989 364.252507,201.350954 367.084071,203.714921 C369.915635,206.078887 371.331396,209.910534 371.331396,215.209975 C371.331396,217.911651 371.019669,221.028923 370.396205,224.561884 C368.837546,233.290376 366.174876,239.52492 362.408117,243.265702 C358.641357,247.006484 352.575665,248.876847 344.210861,248.876847 L323.480796,248.876847 L332.053379,200.168989 L352.783444,200.168989 Z M350.757197,212.6382 L344.600523,212.6382 L340.470097,236.407635 L346.62677,236.407635 C348.653027,236.407635 350.159709,236.160851 351.14686,235.667276 C352.13401,235.173701 352.783442,234.04369 353.095174,232.277209 L355.822814,216.768627 C355.874769,216.456895 355.900747,216.041259 355.900747,215.521706 C355.900747,214.326734 355.48511,213.547416 354.653825,213.183728 C353.82254,212.820041 352.523677,212.6382 350.757197,212.6382 Z M321.142819,248.64305 L288.099407,245.136084 L321.766279,245.136084 L321.142819,248.64305 Z M323.792526,233.602063 L290.749115,230.095097 L324.415987,230.095097 L323.792526,233.602063 Z M325.11738,226.120536 L292.073969,222.61357 L325.740841,222.61357 L325.11738,226.120536 Z M326.442234,218.639009 L293.398822,215.132043 L327.065694,215.132043 L326.442234,218.639009 Z M327.767087,211.157482 L294.723676,207.650516 L328.312615,207.650516 L327.767087,211.157482 Z M322.467672,241.08359 L289.424261,237.576624 L323.091133,237.576624 L322.467672,241.08359 Z M329.014009,203.675954 L296.04853,200.168989 L329.637469,200.168989 L329.014009,203.675954 Z M425.295374,236.719366 C427.321631,236.719366 428.828312,236.472582 429.815463,235.979006 C430.802614,235.485431 431.452046,234.35542 431.763778,232.588939 L435.348676,212.32647 L429.11407,212.32647 C427.139768,212.32647 425.659064,212.573254 424.671913,213.06683 C423.684763,213.560405 423.035331,214.690416 422.723599,216.456897 L419.138701,236.719366 L425.295374,236.719366 Z M431.685845,199 C438.284169,199 442.986054,200.285875 445.791641,202.857662 C448.597228,205.42945 450,209.390983 450,214.74238 C450,220.093777 449.155739,225.691877 447.467191,231.53685 C445.778644,237.381822 443.102986,241.927843 439.440136,245.17505 C435.777287,248.422257 430.42597,250.045836 423.386026,250.045836 C416.346082,250.045836 411.42339,248.759961 408.617803,246.188173 C405.812217,243.616386 404.409444,239.654853 404.409444,234.303456 C404.409444,231.757646 404.773126,228.39359 405.5005,224.211188 C406.227875,220.028785 407.189033,216.417945 408.384006,213.37856 C409.578978,210.339174 411.189568,207.702482 413.215825,205.468404 C417.112473,201.156113 423.269085,199 431.685845,199 Z M403.240456,224.172221 C403.136545,224.587864 403.032636,225.159364 402.928725,225.886738 L372.301224,222.61357 L403.474253,222.61357 L403.240456,224.172221 Z M402.383197,230.095097 C402.227331,231.290069 402.1494,232.381114 402.1494,233.368265 L371.443966,230.095097 L402.383197,230.095097 Z M405.344635,215.132043 L404.409444,218.327278 L374.171606,215.132043 L405.344635,215.132043 Z M372.457089,237.576624 L402.227332,237.576624 L402.378327,238.599492 C402.52445,239.554166 402.655961,240.304261 402.77286,240.849792 L372.457089,237.576624 Z M377.834437,207.650516 L408.539871,207.650516 L408.193503,208.299956 C407.645087,209.339058 407.240996,210.161673 406.981219,210.767819 L377.834437,207.650516 Z M404.565309,245.136084 C405.240728,246.331056 406.020046,247.292215 406.903287,248.019589 L379.938616,245.136084 L404.565309,245.136084 Z M415.943465,200.168989 C414.436761,201.104184 413.267784,201.961434 412.436499,202.740764 L388.589132,200.168989 L415.943465,200.168989 Z" id="RAPIDO" fill="#FDD023" fill-rule="nonzero"></path>
        <path d="M356.156808,300.306365 C369.476098,358.543811 363.689096,404.931681 337.877231,419.812543 C331.814658,423.303115 324.833513,424.956544 317.117511,424.956544 C291.85679,424.956544 258.788209,407.136253 225.352199,376.08853 C191.916189,407.319967 158.847608,425.323973 133.586887,425.323973 C125.870885,425.323973 118.88974,423.670544 112.919024,420.179971 C87.0153021,405.29911 81.1364432,358.819382 94.3638756,300.398222 C65.6109524,291.597248 41.8738441,280.091893 25.3555773,267.041647 L64.4839856,267.041501 C67.4104485,268.459179 70.4534019,269.843677 73.6041554,271.187643 C81.5957291,274.586358 90.230303,277.709502 99.3241628,280.557074 C100.605275,276.096059 101.988942,271.589463 103.475165,267.041545 L125.169556,267.041045 C122.966432,273.418849 120.951679,279.7485 119.165311,285.976647 C131.198601,288.916076 143.783033,291.304363 156.826751,293.233363 C152.325749,286.252218 147.916605,279.087359 143.599318,271.738786 C142.679417,270.172997 141.776198,268.607208 140.887883,267.041419 L164.664834,267.042508 C170.822619,277.337645 177.169484,287.158393 183.649044,296.448364 C197.243905,297.55065 211.114338,298.19365 224.98477,298.19365 C238.94706,298.19365 252.817493,297.55065 266.504211,296.356507 C272.935142,287.136257 279.170007,277.327812 285.263935,267.041427 L308.874599,267.041915 C308.050352,268.518379 307.215805,269.992636 306.370222,271.463214 C302.144793,278.903645 297.643791,286.160361 293.14279,293.233363 C306.278365,291.304363 318.954655,288.824219 330.987944,285.88479 C329.175848,279.685515 327.165704,273.387215 324.95751,267.041299 L346.662532,267.041914 C348.151548,271.558126 349.540402,276.03393 350.829092,280.465217 C359.739238,277.617644 368.373812,274.586358 376.273528,271.187643 C379.440304,269.845789 382.49818,268.461246 385.438418,267.041736 L424.649861,267.041456 C408.227781,280.047139 384.666923,291.523411 356.156808,300.306365 Z M114.02131,305.909653 C112.000452,315.187227 110.347023,324.281086 109.336594,332.91566 C105.111164,368.005099 110.530737,395.286678 123.023312,402.451538 C125.779028,404.013109 129.2696,404.839824 133.403173,404.931681 C152.509464,404.931681 180.617758,389.683391 210.563195,361.850669 C197.611334,348.347665 184.75133,332.91566 172.350612,315.922084 C151.682749,313.717512 132.025315,310.318797 114.02131,305.909653 Z M336.131945,305.725938 C318.12794,310.22694 298.470506,313.625655 277.710786,315.830227 C265.493782,332.823803 252.633778,348.16395 239.773775,361.666954 C269.719212,389.315962 297.919363,404.472395 316.933797,404.472395 C321.159227,404.472395 324.741656,403.737538 327.497371,402.084109 C339.898089,394.827392 345.225805,367.545813 340.908518,332.456375 C339.898089,323.913658 338.24466,315.003512 336.131945,305.725938 Z M250.429206,317.942942 C242.070204,318.402228 233.527487,318.585942 224.892913,318.585942 C216.350196,318.585942 207.899337,318.31037 199.632192,317.942942 C208.083051,328.690231 216.625768,338.518948 225.168485,347.337236 C233.619344,338.518948 242.162061,328.690231 250.429206,317.942942 Z M316.566368,24 L316.566134,24.092 L317.165834,24.0964172 C324.290984,24.1907103 330.838887,25.7490027 336.504951,28.9235898 L337.050517,29.2358586 C362.954239,44.1167201 368.833097,90.5964477 355.605665,149.017607 C384.583216,157.887338 408.466275,169.503869 424.999779,182.680324 L386.114495,182.680395 C382.995772,181.155796 379.742502,179.668709 376.365385,178.228187 C368.281954,174.829472 359.647381,171.706328 350.553521,168.858756 C349.243699,173.419744 347.826673,178.028377 346.302445,182.680108 L324.602374,182.680548 C326.846808,176.199285 328.897461,169.766847 330.712372,163.439183 C318.679083,160.499754 306.094651,158.111467 293.050933,156.182467 C297.551934,163.163611 302.052935,170.328471 306.278365,177.677044 C307.258196,179.344841 308.219101,181.012638 309.163227,182.680435 L285.377773,182.679233 C279.197133,172.339603 272.825688,162.4779 266.320497,153.15118 C252.725635,152.048894 238.855203,151.405894 224.98477,151.405894 C211.022481,151.405894 197.152048,152.048894 183.46533,153.243037 C177.009047,162.499636 170.750378,172.349075 164.633541,182.679794 L140.825973,182.680628 C141.707731,181.104624 142.601259,179.52862 143.507461,177.952616 C147.732891,170.512185 152.233892,163.255469 156.734894,156.182467 C143.599318,158.111467 130.923029,160.591611 118.88974,163.439183 C120.73972,169.768064 122.796117,176.200153 125.058931,182.680751 L103.316213,182.680033 C101.788933,178.059938 100.366393,173.482 99.0485913,168.950613 C90.1384458,171.798185 81.5038719,174.829472 73.6041554,178.228187 C70.2100575,179.666364 66.9410543,181.153579 63.8080095,182.680324 L25.0006378,182.679992 C41.4596045,169.574305 65.1955313,157.999779 93.9964469,149.109465 C80.6771574,90.8720192 86.4641591,44.4841488 112.276024,29.6032873 C118.154882,26.2184898 124.897485,24.5611807 132.336319,24.4638459 L133.035744,24.4592858 L133.035744,24.3674287 C158.296465,24.3674287 191.365046,42.1877195 224.801056,73.2354427 C258.237066,42.0040052 291.305647,24 316.566368,24 Z M133.035744,44.8515774 L133.035744,44.9434346 C128.810314,44.9434346 125.227885,45.678292 122.472169,47.331721 C110.071452,54.5884374 104.743736,81.8700167 109.061023,116.959455 C110.163309,125.502172 111.724881,134.412317 113.837596,143.598034 C131.841601,139.097033 151.499035,135.698318 172.258755,133.493746 C184.475759,116.500169 197.335762,101.160022 210.195766,87.6570183 C180.250329,60.0080104 152.050178,44.8515774 133.035744,44.8515774 Z M316.474134,44.485 L315.990486,44.4887206 C296.897727,44.790373 269.052329,60.0107661 239.406346,87.5651612 C252.358207,101.068165 265.218211,116.500169 277.618928,133.493746 C298.286791,135.698318 317.944226,139.097033 335.948231,143.506177 C337.969089,134.228603 339.622518,125.134743 340.632947,116.500169 C344.858376,81.4107308 339.438803,54.1291515 326.946228,46.9642923 C324.217305,45.4677859 320.98221,44.6461746 316.998404,44.5803051 L316.474511,44.5760059 L316.474134,44.485 Z M224.709199,102.078594 C216.258339,110.896882 207.715623,120.725599 199.448477,131.472888 C207.80748,131.013602 216.350196,130.829888 224.98477,130.829888 C233.527487,130.829888 241.978347,131.105459 250.245492,131.472888 C241.794632,120.725599 233.251916,110.896882 224.709199,102.078594 Z M316.474511,24.0918572 L316.474134,44.485 L316.566368,44.4841488 L316.566134,24.092 L316.474511,24.0918572 Z" id="Combined-Shape" fill="#FDD023" fill-rule="nonzero"></path>
    </g>
</svg>
